<?xml version="1.0" encoding="utf-8"?>
<!-- Generator: Adobe Illustrator 24.3.0, SVG Export Plug-In . SVG Version: 6.00 Build 0)  -->
<svg version="1.1" id="Layer_1" xmlns="http://www.w3.org/2000/svg" xmlns:xlink="http://www.w3.org/1999/xlink" x="0px" y="0px"
	 viewBox="0 0 96 120" style="enable-background:new 0 0 96 120;" xml:space="preserve">
<style type="text/css">
	.st0{fill:#DC0E18;}
</style>
<g>
	<path class="st0" d="M90.6,52l-4.7-4.7c-1.3-1.3-3.4-1.3-4.7,0L68,60.5c-4.7-7.2-11.7-11.4-20.9-12.6c10-4.3,14.5-15.9,10.2-25.9
		S41.4,7.5,31.5,11.9S16.9,27.8,21.3,37.7c2,4.6,5.6,8.2,10.2,10.2c-7.3,1-13.3,3.9-17.8,8.7C3.5,67.5,4.4,84.1,4.5,84.8
		c0,0.5,0.5,0.9,1,0.9c0,0,0,0,0.1,0c0.6,0,1-0.5,0.9-1.1c0-0.2-1-16.5,8.7-26.8c5.2-5.6,12.6-8.4,22-8.4h4.4
		c11.5,0,19.9,4.2,25.1,12.4L55.6,72.9c0,0,0,0,0,0c-0.1,0.1-0.1,0.2-0.2,0.3c0,0,0,0,0,0.1c0,0,0,0,0,0l-3.1,9.4
		c-0.3,0.8-0.1,1.8,0.5,2.4c0.4,0.4,1,0.7,1.6,0.7c0.3,0,0.5,0,0.8-0.1l9.4-3.1c0,0,0,0,0,0c0,0,0,0,0.1,0c0.1,0,0.2-0.1,0.3-0.2
		c0,0,0,0,0,0l6.5-6.5c0.5,3,0.7,6,0.6,8.9c0,0.6,0.4,1,0.9,1.1c0,0,0,0,0.1,0c0.5,0,1-0.4,1-0.9c0.1-3.6-0.2-7.2-0.9-10.8
		l17.4-17.4C91.9,55.4,91.9,53.3,90.6,52z M21.6,29.9c0-9.7,7.9-17.7,17.7-17.7s17.7,7.9,17.7,17.7c0,9.7-7.9,17.7-17.7,17.7
		C29.5,47.5,21.7,39.6,21.6,29.9z M54.6,83.7c-0.1,0.1-0.3,0-0.4-0.1c0-0.1,0-0.2,0-0.3l2.6-7.9l5.7,5.7L54.6,83.7z M89.2,55.3
		L64.3,80.1l-6.5-6.5l24.9-24.9c0.5-0.5,1.3-0.5,1.8,0l4.7,4.7C89.7,53.9,89.7,54.7,89.2,55.3z"/>
</g>
</svg>
