<?xml version="1.0" encoding="utf-8"?>
<!-- Generator: Adobe Illustrator 24.3.0, SVG Export Plug-In . SVG Version: 6.00 Build 0)  -->
<svg version="1.1" id="Layer_1" xmlns="http://www.w3.org/2000/svg" xmlns:xlink="http://www.w3.org/1999/xlink" x="0px" y="0px"
	 viewBox="0 0 512 640" style="enable-background:new 0 0 512 640;" xml:space="preserve">
<style type="text/css">
	.st0{
		fill:#DC0E18;
	}
</style>
<g>
	<g>
		<g>
			<g>
				<path class="st0" d="M256,428c-94.8,0-172-77.2-172-172c0-94.8,77.2-172,172-172s172,77.2,172,172C428,350.9,350.8,428,256,428z
					 M256,90.1c-91.5,0-166,74.5-166,166c0,91.5,74.5,166,166,166c91.5,0,166-74.5,166-166C422,164.5,347.5,90.1,256,90.1z"/>
			</g>
			<g>
				<path class="st0" d="M256,428c-25.8,0-49.9-18.1-67.9-51.1c-17.7-32.4-27.4-75.3-27.4-120.9c0-45.6,9.7-88.6,27.4-120.9
					c18-32.9,42.1-51.1,67.9-51.1s49.9,18.1,67.9,51.1c17.7,32.4,27.4,75.3,27.4,120.9c0,45.6-9.7,88.6-27.4,120.9
					C305.9,409.9,281.8,428,256,428z M256,90.1c-49.2,0-89.3,74.5-89.3,166c0,91.5,40.1,166,89.3,166c49.2,0,89.3-74.5,89.3-166
					C345.3,164.5,305.2,90.1,256,90.1z"/>
			</g>
			<g>
				<path class="st0" d="M256,427.9c-1.7,0-3-1.3-3-3V87.1c0-1.7,1.3-3,3-3c1.7,0,3,1.3,3,3v337.9C259,426.6,257.7,427.9,256,427.9z
					"/>
			</g>
			<g>
				<path class="st0" d="M399.6,169.9H113.1c-1.7,0-3-1.3-3-3s1.3-3,3-3h286.5c1.7,0,3,1.3,3,3S401.3,169.9,399.6,169.9z"/>
			</g>
			<g>
				<path class="st0" d="M400.5,346.8H112.2c-1.7,0-3-1.3-3-3s1.3-3,3-3h288.2c1.7,0,3,1.3,3,3S402.1,346.8,400.5,346.8z"/>
			</g>
			<g>
				<path class="st0" d="M256,49.1c-7.8,0-14.2-6.4-14.2-14.2c0-7.8,6.4-14.2,14.2-14.2c7.8,0,14.2,6.4,14.2,14.2
					C270.2,42.7,263.8,49.1,256,49.1z M256,26.7c-4.5,0-8.2,3.7-8.2,8.2c0,4.5,3.7,8.2,8.2,8.2c4.5,0,8.2-3.7,8.2-8.2
					C264.2,30.4,260.5,26.7,256,26.7z"/>
			</g>
			<g>
				<path class="st0" d="M256,76.8c-1.7,0-3-1.3-3-3V46.1c0-1.7,1.3-3,3-3c1.7,0,3,1.3,3,3v27.7C259,75.5,257.7,76.8,256,76.8z"/>
			</g>
			<g>
				<path class="st0" d="M447.5,159.7c-4.9,0-9.7-2.6-12.3-7.1c-3.9-6.8-1.6-15.5,5.2-19.4c3.3-1.9,7.1-2.4,10.8-1.4
					c3.7,1,6.7,3.3,8.6,6.6c1.9,3.3,2.4,7.1,1.4,10.8c-1,3.7-3.3,6.7-6.6,8.6C452.4,159.1,449.9,159.7,447.5,159.7z M447.5,137.2
					c-1.4,0-2.8,0.4-4.1,1.1c-3.9,2.3-5.3,7.3-3,11.2c2.3,3.9,7.3,5.3,11.2,3c1.9-1.1,3.3-2.9,3.8-5c0.6-2.1,0.3-4.3-0.8-6.2
					c0,0,0,0,0,0c-1.1-1.9-2.9-3.3-5-3.8C448.9,137.3,448.2,137.2,447.5,137.2z"/>
			</g>
			<g>
				<path class="st0" d="M413.8,167.9c-1,0-2-0.5-2.6-1.5c-0.8-1.4-0.3-3.3,1.1-4.1l24-13.9c1.4-0.8,3.3-0.3,4.1,1.1
					c0.8,1.4,0.3,3.3-1.1,4.1l-24,13.9C414.8,167.8,414.3,167.9,413.8,167.9z"/>
			</g>
			<g>
				<path class="st0" d="M447.5,380.8c-2.5,0-4.9-0.6-7.1-1.9c-3.3-1.9-5.6-5-6.6-8.6c-1-3.7-0.5-7.5,1.4-10.8
					c3.9-6.8,12.7-9.1,19.4-5.2c3.3,1.9,5.7,5,6.6,8.6c1,3.7,0.5,7.5-1.4,10.8c-1.9,3.3-4.9,5.6-8.6,6.6
					C450,380.6,448.7,380.8,447.5,380.8z M447.5,358.3c-2.8,0-5.6,1.5-7.1,4.1c-1.1,1.9-1.4,4.1-0.8,6.2s1.9,3.9,3.8,5
					c1.9,1.1,4.1,1.4,6.3,0.8c2.1-0.6,3.9-1.9,5-3.8c0,0,0,0,0,0c1.1-1.9,1.4-4.1,0.8-6.2c-0.6-2.1-1.9-3.9-3.8-5
					C450.3,358.7,448.9,358.3,447.5,358.3z"/>
			</g>
			<g>
				<path class="st0" d="M437.8,363.9c-0.5,0-1-0.1-1.5-0.4l-24-13.9c-1.4-0.8-1.9-2.7-1.1-4.1s2.7-1.9,4.1-1.1l24,13.9
					c1.4,0.8,1.9,2.7,1.1,4.1C439.8,363.4,438.8,363.9,437.8,363.9z"/>
			</g>
			<g>
				<path class="st0" d="M256,491.3c-7.8,0-14.2-6.4-14.2-14.2c0-7.8,6.4-14.2,14.2-14.2c7.8,0,14.2,6.4,14.2,14.2
					C270.2,484.9,263.8,491.3,256,491.3z M256,468.9c-4.5,0-8.2,3.7-8.2,8.2c0,4.5,3.7,8.2,8.2,8.2c4.5,0,8.2-3.7,8.2-8.2
					C264.2,472.6,260.5,468.9,256,468.9z"/>
			</g>
			<g>
				<path class="st0" d="M256,468.9c-1.7,0-3-1.3-3-3v-27.7c0-1.7,1.3-3,3-3c1.7,0,3,1.3,3,3v27.7C259,467.5,257.7,468.9,256,468.9z
					"/>
			</g>
			<g>
				<path class="st0" d="M64.5,380.8c-1.2,0-2.5-0.2-3.7-0.5c-3.7-1-6.7-3.3-8.6-6.6c-3.9-6.8-1.6-15.5,5.2-19.4
					c6.8-3.9,15.5-1.6,19.4,5.2c1.9,3.3,2.4,7.1,1.4,10.8c-1,3.7-3.3,6.7-6.6,8.6C69.4,380.1,67,380.8,64.5,380.8z M64.5,358.3
					c-1.4,0-2.8,0.4-4.1,1.1c-3.9,2.3-5.3,7.3-3,11.2c0,0,0,0,0,0c1.1,1.9,2.8,3.3,5,3.8c2.1,0.6,4.4,0.3,6.3-0.8
					c1.9-1.1,3.3-2.9,3.8-5c0.6-2.1,0.3-4.3-0.8-6.2C70.1,359.8,67.3,358.3,64.5,358.3z"/>
			</g>
			<g>
				<path class="st0" d="M74.2,363.9c-1,0-2-0.5-2.6-1.5c-0.8-1.4-0.3-3.3,1.1-4.1l24-13.9c1.4-0.8,3.3-0.3,4.1,1.1
					c0.8,1.4,0.3,3.3-1.1,4.1l-24,13.9C75.3,363.8,74.7,363.9,74.2,363.9z"/>
			</g>
			<g>
				<path class="st0" d="M64.5,159.7c-2.4,0-4.8-0.6-7.1-1.9c-3.3-1.9-5.6-5-6.6-8.6c-1-3.7-0.5-7.5,1.4-10.8l0,0
					c1.9-3.3,5-5.6,8.6-6.6c3.7-1,7.5-0.5,10.8,1.4c6.8,3.9,9.1,12.6,5.2,19.4C74.2,157.1,69.4,159.7,64.5,159.7z M64.5,137.2
					c-0.7,0-1.4,0.1-2.1,0.3c-2.1,0.6-3.9,1.9-5,3.8c0,0,0,0,0,0c-1.1,1.9-1.4,4.1-0.8,6.2c0.6,2.1,1.9,3.9,3.8,5
					c3.9,2.3,9,0.9,11.2-3c2.3-3.9,0.9-9-3-11.2C67.4,137.6,66,137.2,64.5,137.2z M54.8,139.8L54.8,139.8L54.8,139.8z"/>
			</g>
			<g>
				<path class="st0" d="M98.2,167.9c-0.5,0-1-0.1-1.5-0.4l-24-13.9c-1.4-0.8-1.9-2.7-1.1-4.1c0.8-1.4,2.7-1.9,4.1-1.1l24,13.9
					c1.4,0.8,1.9,2.7,1.1,4.1C100.3,167.4,99.3,167.9,98.2,167.9z"/>
			</g>
			<g>
				<path class="st0" d="M85.6,127.7c-1,0-2-0.5-2.6-1.5c-0.8-1.4-0.3-3.3,1.1-4.1l1.2-0.7c0.3-0.2,0.7-0.3,1-0.4
					c0.2-0.3,0.5-0.5,0.8-0.7l1.2-0.7c0.3-0.2,0.7-0.3,1-0.4c0.2-0.3,0.5-0.5,0.8-0.7l1.2-0.7c0.3-0.2,0.7-0.3,1-0.4
					c0.2-0.3,0.5-0.5,0.8-0.7l1.2-0.7c0.3-0.2,0.7-0.3,1-0.4c0.2-0.3,0.5-0.5,0.8-0.7l1.2-0.7c0.3-0.2,0.7-0.3,1-0.4
					c0.2-0.3,0.5-0.5,0.8-0.7l1.2-0.7c0.3-0.2,0.7-0.3,1-0.4c0.2-0.3,0.5-0.5,0.8-0.7l1.2-0.7c0.3-0.2,0.7-0.3,1-0.4
					c0.2-0.3,0.5-0.5,0.8-0.7l1.2-0.7c0.3-0.2,0.7-0.3,1-0.4c0.2-0.3,0.5-0.5,0.8-0.7l1.2-0.7c0.3-0.2,0.7-0.3,1-0.4
					c0.2-0.3,0.5-0.5,0.8-0.7l1.2-0.7c0.3-0.2,0.7-0.3,1-0.4c0.2-0.3,0.5-0.5,0.8-0.7l1.2-0.7c0.3-0.2,0.7-0.3,1-0.4
					c0.2-0.3,0.5-0.5,0.8-0.7l1.2-0.7c0.3-0.2,0.7-0.3,1-0.4c0.2-0.3,0.5-0.5,0.8-0.7l1.2-0.7c0.3-0.2,0.7-0.3,1-0.4
					c0.2-0.3,0.5-0.5,0.8-0.7l1.2-0.7c0.3-0.2,0.7-0.3,1-0.4c0.2-0.3,0.5-0.5,0.8-0.7l1.2-0.7c0.3-0.2,0.7-0.3,1-0.4
					c0.2-0.3,0.5-0.5,0.8-0.7l1.2-0.7c0.3-0.2,0.7-0.3,1-0.4c0.2-0.3,0.5-0.5,0.8-0.7l1.2-0.7c0.3-0.2,0.7-0.3,1-0.4
					c0.2-0.3,0.5-0.5,0.8-0.7l1.2-0.7c0.3-0.2,0.7-0.3,1-0.4c0.2-0.3,0.5-0.5,0.8-0.7l1.2-0.7c0.3-0.2,0.7-0.3,1-0.4
					c0.2-0.3,0.5-0.5,0.8-0.7l1.2-0.7c0.3-0.2,0.7-0.3,1-0.4c0.2-0.3,0.5-0.5,0.8-0.7l1.2-0.7c0.3-0.2,0.7-0.3,1-0.4
					c0.2-0.3,0.5-0.5,0.8-0.7l1.2-0.7c0.3-0.2,0.7-0.3,1-0.4c0.2-0.3,0.5-0.5,0.8-0.7l1.2-0.7c0.3-0.2,0.7-0.3,1-0.4
					c0.2-0.3,0.5-0.5,0.8-0.7L157,80c0.3-0.2,0.7-0.3,1-0.4c0.2-0.3,0.5-0.5,0.8-0.7l1.2-0.7c0.3-0.2,0.7-0.3,1-0.4
					c0.2-0.3,0.5-0.5,0.8-0.7l1.2-0.7c0.3-0.2,0.7-0.3,1-0.4c0.2-0.3,0.5-0.5,0.8-0.7l1.2-0.7c0.3-0.2,0.7-0.3,1-0.4
					c0.2-0.3,0.5-0.5,0.8-0.7l1.2-0.7c0.3-0.2,0.7-0.3,1-0.4c0.2-0.3,0.5-0.5,0.8-0.7l1.2-0.7c0.3-0.2,0.7-0.3,1-0.4
					c0.2-0.3,0.5-0.5,0.8-0.7l1.2-0.7c0.3-0.2,0.7-0.3,1-0.4c0.2-0.3,0.5-0.5,0.8-0.7l1.2-0.7c0.3-0.2,0.7-0.3,1-0.4
					c0.2-0.3,0.5-0.5,0.8-0.7l1.2-0.7c0.3-0.2,0.7-0.3,1-0.4c0.2-0.3,0.5-0.5,0.8-0.7l1.2-0.7c0.3-0.2,0.7-0.3,1-0.4
					c0.2-0.3,0.5-0.5,0.8-0.7l1.2-0.7c0.3-0.2,0.7-0.3,1-0.4c0.2-0.3,0.5-0.5,0.8-0.7l1.2-0.7c0.3-0.2,0.7-0.3,1-0.4
					c0.2-0.3,0.5-0.5,0.8-0.7l1.2-0.7c0.3-0.2,0.7-0.3,1-0.4c0.2-0.3,0.5-0.5,0.8-0.7l1.2-0.7c0.3-0.2,0.7-0.3,1-0.4
					c0.2-0.3,0.5-0.5,0.8-0.7l1.2-0.7c0.3-0.2,0.7-0.3,1-0.4c0.2-0.3,0.5-0.5,0.8-0.7l1.2-0.7c0.3-0.2,0.7-0.3,1-0.4
					c0.2-0.3,0.5-0.5,0.8-0.7l1.2-0.7c0.3-0.2,0.7-0.3,1-0.4c0.2-0.3,0.5-0.5,0.8-0.7l1.2-0.7c0.3-0.2,0.7-0.3,1-0.4
					c0.2-0.3,0.5-0.5,0.8-0.7l1.2-0.7c0.3-0.2,0.7-0.3,1-0.4c0.2-0.3,0.5-0.5,0.8-0.7l1.2-0.7c0.3-0.2,0.7-0.3,1-0.4
					c0.2-0.3,0.5-0.5,0.8-0.7l1.2-0.7c0.3-0.2,0.7-0.3,1-0.4c0.2-0.3,0.5-0.5,0.8-0.7l1.2-0.7c0.3-0.2,0.7-0.3,1-0.4
					c0.2-0.3,0.5-0.5,0.8-0.7l1.2-0.7c1.4-0.8,3.3-0.3,4.1,1.1c0.8,1.4,0.3,3.3-1.1,4.1l-1.2,0.7c-0.3,0.2-0.7,0.3-1,0.4
					c-0.2,0.3-0.5,0.5-0.8,0.7l-1.2,0.7c-0.3,0.2-0.7,0.3-1,0.4c-0.2,0.3-0.5,0.5-0.8,0.7l-1.2,0.7c-0.3,0.2-0.7,0.3-1,0.4
					c-0.2,0.3-0.5,0.5-0.8,0.7l-1.2,0.7c-0.3,0.2-0.7,0.3-1,0.4c-0.2,0.3-0.5,0.5-0.8,0.7l-1.2,0.7c-0.3,0.2-0.7,0.3-1,0.4
					c-0.2,0.3-0.5,0.5-0.8,0.7l-1.2,0.7c-0.3,0.2-0.7,0.3-1,0.4c-0.2,0.3-0.5,0.5-0.8,0.7l-1.2,0.7c-0.3,0.2-0.7,0.3-1,0.4
					c-0.2,0.3-0.5,0.5-0.8,0.7l-1.2,0.7c-0.3,0.2-0.7,0.3-1,0.4c-0.2,0.3-0.5,0.5-0.8,0.7l-1.2,0.7c-0.3,0.2-0.7,0.3-1,0.4
					c-0.2,0.3-0.5,0.5-0.8,0.7l-1.2,0.7c-0.3,0.2-0.7,0.3-1,0.4c-0.2,0.3-0.5,0.5-0.8,0.7l-1.2,0.7c-0.3,0.2-0.7,0.3-1,0.4
					c-0.2,0.3-0.5,0.5-0.8,0.7l-1.2,0.7c-0.3,0.2-0.7,0.3-1,0.4c-0.2,0.3-0.5,0.5-0.8,0.7l-1.2,0.7c-0.3,0.2-0.7,0.3-1,0.4
					c-0.2,0.3-0.5,0.5-0.8,0.7l-1.2,0.7c-0.3,0.2-0.7,0.3-1,0.4c-0.2,0.3-0.5,0.5-0.8,0.7l-1.2,0.7c-0.3,0.2-0.7,0.3-1,0.4
					c-0.2,0.3-0.5,0.5-0.8,0.7l-1.2,0.7c-0.3,0.2-0.7,0.3-1,0.4c-0.2,0.3-0.5,0.5-0.8,0.7l-1.2,0.7c-0.3,0.2-0.7,0.3-1,0.4
					c-0.2,0.3-0.5,0.5-0.8,0.7l-1.2,0.7c-0.3,0.2-0.7,0.3-1,0.4c-0.2,0.3-0.5,0.5-0.8,0.7l-1.2,0.7c-0.3,0.2-0.7,0.3-1,0.4
					c-0.2,0.3-0.5,0.5-0.8,0.7l-1.2,0.7c-0.3,0.2-0.7,0.3-1,0.4c-0.2,0.3-0.5,0.5-0.8,0.7l-1.2,0.7c-0.3,0.2-0.7,0.3-1,0.4
					c-0.2,0.3-0.5,0.5-0.8,0.7l-1.2,0.7c-0.3,0.2-0.7,0.3-1,0.4c-0.2,0.3-0.5,0.5-0.8,0.7l-1.2,0.7c-0.3,0.2-0.7,0.3-1,0.4
					c-0.2,0.3-0.5,0.5-0.8,0.7l-1.2,0.7c-0.3,0.2-0.7,0.3-1,0.4c-0.2,0.3-0.5,0.5-0.8,0.7l-1.2,0.7c-0.3,0.2-0.7,0.3-1,0.4
					c-0.2,0.3-0.5,0.5-0.8,0.7l-1.2,0.7c-0.3,0.2-0.7,0.3-1,0.4c-0.2,0.3-0.5,0.5-0.8,0.7l-1.2,0.7c-0.3,0.2-0.7,0.3-1,0.4
					c-0.2,0.3-0.5,0.5-0.8,0.7l-1.2,0.7c-0.3,0.2-0.7,0.3-1,0.4c-0.2,0.3-0.5,0.5-0.8,0.7l-1.2,0.7c-0.3,0.2-0.7,0.3-1,0.4
					c-0.2,0.3-0.5,0.5-0.8,0.7l-1.2,0.7c-0.3,0.2-0.7,0.3-1,0.4c-0.2,0.3-0.5,0.5-0.8,0.7l-1.2,0.7c-0.3,0.2-0.7,0.3-1,0.4
					c-0.2,0.3-0.5,0.5-0.8,0.7l-1.2,0.7c-0.3,0.2-0.7,0.3-1,0.4c-0.2,0.3-0.5,0.5-0.8,0.7l-1.2,0.7c-0.3,0.2-0.7,0.3-1,0.4
					c-0.2,0.3-0.5,0.5-0.8,0.7l-1.2,0.7c-0.3,0.2-0.7,0.3-1,0.4c-0.2,0.3-0.5,0.5-0.8,0.7l-1.2,0.7c-0.3,0.2-0.7,0.3-1,0.4
					c-0.2,0.3-0.5,0.5-0.8,0.7l-1.2,0.7c-0.3,0.2-0.7,0.3-1,0.4c-0.2,0.3-0.5,0.5-0.8,0.7l-1.2,0.7c-0.3,0.2-0.7,0.3-1,0.4
					c-0.2,0.3-0.5,0.5-0.8,0.7l-1.2,0.7c-0.3,0.2-0.7,0.3-1,0.4c-0.2,0.3-0.5,0.5-0.8,0.7l-1.2,0.7c-0.3,0.2-0.7,0.3-1,0.4
					c-0.2,0.3-0.5,0.5-0.8,0.7l-1.2,0.7c-0.3,0.2-0.7,0.3-1,0.4c-0.2,0.3-0.5,0.5-0.8,0.7l-1.2,0.7c-0.3,0.2-0.7,0.3-1,0.4
					c-0.2,0.3-0.5,0.5-0.8,0.7l-1.2,0.7c-0.3,0.2-0.7,0.3-1,0.4c-0.2,0.3-0.5,0.5-0.8,0.7l-1.2,0.7c-0.3,0.2-0.7,0.3-1,0.4
					c-0.2,0.3-0.5,0.5-0.8,0.7l-1.2,0.7c-0.3,0.2-0.7,0.3-1,0.4c-0.2,0.3-0.5,0.5-0.8,0.7l-1.2,0.7c-0.3,0.2-0.7,0.3-1,0.4
					c-0.2,0.3-0.5,0.5-0.8,0.7l-1.2,0.7C86.6,127.6,86.1,127.7,85.6,127.7z"/>
			</g>
			<g>
				<path class="st0" d="M426.1,127.5c-0.5,0-1-0.1-1.5-0.4l-1.2-0.7c-0.3-0.2-0.6-0.4-0.8-0.7c-0.4-0.1-0.7-0.2-1-0.4l-1.2-0.7
					c-0.3-0.2-0.6-0.4-0.8-0.7c-0.4-0.1-0.7-0.2-1-0.4l-1.2-0.7c-0.3-0.2-0.6-0.4-0.8-0.7c-0.4-0.1-0.7-0.2-1-0.4L414,121
					c-0.3-0.2-0.6-0.4-0.8-0.7c-0.4-0.1-0.7-0.2-1-0.4l-1.2-0.7c-0.3-0.2-0.6-0.4-0.8-0.7c-0.4-0.1-0.7-0.2-1-0.4l-1.2-0.7
					c-0.3-0.2-0.6-0.4-0.8-0.7c-0.4-0.1-0.7-0.2-1-0.4l-1.2-0.7c-0.3-0.2-0.6-0.4-0.8-0.7c-0.4-0.1-0.7-0.2-1-0.4l-1.2-0.7
					c-0.3-0.2-0.6-0.4-0.8-0.7c-0.4-0.1-0.7-0.2-1-0.4l-1.2-0.7c-0.3-0.2-0.6-0.4-0.8-0.7c-0.4-0.1-0.7-0.2-1-0.4l-1.2-0.7
					c-0.3-0.2-0.6-0.4-0.8-0.7c-0.4-0.1-0.7-0.2-1-0.4l-1.2-0.7c-0.3-0.2-0.6-0.4-0.8-0.7c-0.4-0.1-0.7-0.2-1-0.4l-1.2-0.7
					c-0.3-0.2-0.6-0.4-0.8-0.7c-0.4-0.1-0.7-0.2-1-0.4l-1.2-0.7c-0.3-0.2-0.6-0.4-0.8-0.7c-0.4-0.1-0.7-0.2-1-0.4l-1.2-0.7
					c-0.3-0.2-0.6-0.4-0.8-0.7c-0.4-0.1-0.7-0.2-1-0.4l-1.2-0.7c-0.3-0.2-0.6-0.4-0.8-0.7c-0.4-0.1-0.7-0.2-1-0.4l-1.2-0.7
					c-0.3-0.2-0.6-0.4-0.8-0.7c-0.4-0.1-0.7-0.2-1-0.4l-1.2-0.7c-0.3-0.2-0.6-0.4-0.8-0.7c-0.4-0.1-0.7-0.2-1-0.4l-1.2-0.7
					c-0.3-0.2-0.6-0.4-0.8-0.7c-0.4-0.1-0.7-0.2-1-0.4l-1.2-0.7c-0.3-0.2-0.6-0.4-0.8-0.7c-0.4-0.1-0.7-0.2-1-0.4l-1.2-0.7
					c-0.3-0.2-0.6-0.4-0.8-0.7c-0.4-0.1-0.7-0.2-1-0.4l-1.2-0.7c-0.3-0.2-0.6-0.4-0.8-0.7c-0.4-0.1-0.7-0.2-1-0.4l-1.2-0.7
					c-0.3-0.2-0.6-0.4-0.8-0.7c-0.4-0.1-0.7-0.2-1-0.4l-1.2-0.7c-0.3-0.2-0.6-0.4-0.8-0.7c-0.4-0.1-0.7-0.2-1-0.4l-1.2-0.7
					c-0.3-0.2-0.6-0.4-0.8-0.7c-0.4-0.1-0.7-0.2-1-0.4l-1.2-0.7c-0.3-0.2-0.6-0.4-0.8-0.7c-0.4-0.1-0.7-0.2-1-0.4l-1.2-0.7
					c-0.3-0.2-0.6-0.4-0.8-0.7c-0.4-0.1-0.7-0.2-1-0.4l-1.2-0.7c-0.3-0.2-0.6-0.4-0.8-0.7c-0.4-0.1-0.7-0.2-1-0.4l-1.2-0.7
					c-0.3-0.2-0.6-0.4-0.8-0.7c-0.4-0.1-0.7-0.2-1-0.4l-1.2-0.7c-0.3-0.2-0.6-0.4-0.8-0.7c-0.4-0.1-0.7-0.2-1-0.4l-1.2-0.7
					c-0.3-0.2-0.6-0.4-0.8-0.7c-0.4-0.1-0.7-0.2-1-0.4l-1.2-0.7c-0.3-0.2-0.6-0.4-0.8-0.7c-0.4-0.1-0.7-0.2-1-0.4l-1.2-0.7
					c-0.3-0.2-0.6-0.4-0.8-0.7c-0.4-0.1-0.7-0.2-1-0.4l-1.2-0.7c-0.3-0.2-0.6-0.4-0.8-0.7c-0.4-0.1-0.7-0.2-1-0.4l-1.2-0.7
					c-0.3-0.2-0.6-0.4-0.8-0.7c-0.4-0.1-0.7-0.2-1-0.4l-1.2-0.7c-0.3-0.2-0.6-0.4-0.8-0.7c-0.4-0.1-0.7-0.2-1-0.4l-1.2-0.7
					c-0.3-0.2-0.6-0.4-0.8-0.7c-0.4-0.1-0.7-0.2-1-0.4l-1.2-0.7c-0.3-0.2-0.6-0.4-0.8-0.7c-0.4-0.1-0.7-0.2-1-0.4l-1.2-0.7
					c-0.3-0.2-0.6-0.4-0.8-0.7c-0.4-0.1-0.7-0.2-1-0.4l-1.2-0.7c-0.3-0.2-0.6-0.4-0.8-0.7c-0.4-0.1-0.7-0.2-1-0.4l-1.2-0.7
					c-0.3-0.2-0.6-0.4-0.8-0.7c-0.4-0.1-0.7-0.2-1-0.4l-1.2-0.7c-0.3-0.2-0.6-0.4-0.8-0.7c-0.4-0.1-0.7-0.2-1-0.4l-1.2-0.7
					c-0.3-0.2-0.6-0.4-0.8-0.7c-0.4-0.1-0.7-0.2-1-0.4l-1.2-0.7c-0.3-0.2-0.6-0.4-0.8-0.7c-0.4-0.1-0.7-0.2-1-0.4l-1.2-0.7
					c-0.3-0.2-0.6-0.4-0.8-0.7c-0.4-0.1-0.7-0.2-1-0.4l-1.2-0.7c-0.3-0.2-0.6-0.4-0.8-0.7c-0.4-0.1-0.7-0.2-1-0.4l-1.2-0.7
					c-1.4-0.8-1.9-2.7-1.1-4.1c0.8-1.4,2.7-1.9,4.1-1.1l1.2,0.7c0.3,0.2,0.6,0.4,0.8,0.7c0.4,0.1,0.7,0.2,1,0.4l1.2,0.7
					c0.3,0.2,0.6,0.4,0.8,0.7c0.4,0.1,0.7,0.2,1,0.4l1.2,0.7c0.3,0.2,0.6,0.4,0.8,0.7c0.4,0.1,0.7,0.2,1,0.4l1.2,0.7
					c0.3,0.2,0.6,0.4,0.8,0.7c0.4,0.1,0.7,0.2,1,0.4l1.2,0.7c0.3,0.2,0.6,0.4,0.8,0.7c0.4,0.1,0.7,0.2,1,0.4l1.2,0.7
					c0.3,0.2,0.6,0.4,0.8,0.7c0.4,0.1,0.7,0.2,1,0.4l1.2,0.7c0.3,0.2,0.6,0.4,0.8,0.7c0.4,0.1,0.7,0.2,1,0.4l1.2,0.7
					c0.3,0.2,0.6,0.4,0.8,0.7c0.4,0.1,0.7,0.2,1,0.4l1.2,0.7c0.3,0.2,0.6,0.4,0.8,0.7c0.4,0.1,0.7,0.2,1,0.4l1.2,0.7
					c0.3,0.2,0.6,0.4,0.8,0.7c0.4,0.1,0.7,0.2,1,0.4l1.2,0.7c0.3,0.2,0.6,0.4,0.8,0.7c0.4,0.1,0.7,0.2,1,0.4l1.2,0.7
					c0.3,0.2,0.6,0.4,0.8,0.7c0.4,0.1,0.7,0.2,1,0.4l1.2,0.7c0.3,0.2,0.6,0.4,0.8,0.7c0.4,0.1,0.7,0.2,1,0.4l1.2,0.7
					c0.3,0.2,0.6,0.4,0.8,0.7c0.4,0.1,0.7,0.2,1,0.4l1.2,0.7c0.3,0.2,0.6,0.4,0.8,0.7c0.4,0.1,0.7,0.2,1,0.4l1.2,0.7
					c0.3,0.2,0.6,0.4,0.8,0.7c0.4,0.1,0.7,0.2,1,0.4l1.2,0.7c0.3,0.2,0.6,0.4,0.8,0.7c0.4,0.1,0.7,0.2,1,0.4l1.2,0.7
					c0.3,0.2,0.6,0.4,0.8,0.7c0.4,0.1,0.7,0.2,1,0.4l1.2,0.7c0.3,0.2,0.6,0.4,0.8,0.7c0.4,0.1,0.7,0.2,1,0.4l1.2,0.7
					c0.3,0.2,0.6,0.4,0.8,0.7c0.4,0.1,0.7,0.2,1,0.4l1.2,0.7c0.3,0.2,0.6,0.4,0.8,0.7c0.4,0.1,0.7,0.2,1,0.4l1.2,0.7
					c0.3,0.2,0.6,0.4,0.8,0.7c0.4,0.1,0.7,0.2,1,0.4l1.2,0.7c0.3,0.2,0.6,0.4,0.8,0.7c0.4,0.1,0.7,0.2,1,0.4l1.2,0.7
					c0.3,0.2,0.6,0.4,0.8,0.7c0.4,0.1,0.7,0.2,1,0.4l1.2,0.7c0.3,0.2,0.6,0.4,0.8,0.7c0.4,0.1,0.7,0.2,1,0.4l1.2,0.7
					c0.3,0.2,0.6,0.4,0.8,0.7c0.4,0.1,0.7,0.2,1,0.4l1.2,0.7c0.3,0.2,0.6,0.4,0.8,0.7c0.4,0.1,0.7,0.2,1,0.4l1.2,0.7
					c0.3,0.2,0.6,0.4,0.8,0.7c0.4,0.1,0.7,0.2,1,0.4l1.2,0.7c0.3,0.2,0.6,0.4,0.8,0.7c0.4,0.1,0.7,0.2,1,0.4l1.2,0.7
					c0.3,0.2,0.6,0.4,0.8,0.7c0.4,0.1,0.7,0.2,1,0.4l1.2,0.7c0.3,0.2,0.6,0.4,0.8,0.7c0.4,0.1,0.7,0.2,1,0.4l1.2,0.7
					c0.3,0.2,0.6,0.4,0.8,0.7c0.4,0.1,0.7,0.2,1,0.4l1.2,0.7c0.3,0.2,0.6,0.4,0.8,0.7c0.4,0.1,0.7,0.2,1,0.4l1.2,0.7
					c0.3,0.2,0.6,0.4,0.8,0.7c0.4,0.1,0.7,0.2,1,0.4l1.2,0.7c0.3,0.2,0.6,0.4,0.8,0.7c0.4,0.1,0.7,0.2,1,0.4l1.2,0.7
					c0.3,0.2,0.6,0.4,0.8,0.7c0.4,0.1,0.7,0.2,1,0.4l1.2,0.7c0.3,0.2,0.6,0.4,0.8,0.7c0.4,0.1,0.7,0.2,1,0.4l1.2,0.7
					c0.3,0.2,0.6,0.4,0.8,0.7c0.4,0.1,0.7,0.2,1,0.4l1.2,0.7c0.3,0.2,0.6,0.4,0.8,0.7c0.4,0.1,0.7,0.2,1,0.4l1.2,0.7
					c0.3,0.2,0.6,0.4,0.8,0.7c0.4,0.1,0.7,0.2,1,0.4l1.2,0.7c0.3,0.2,0.6,0.4,0.8,0.7c0.4,0.1,0.7,0.2,1,0.4l1.2,0.7
					c0.3,0.2,0.6,0.4,0.8,0.7c0.4,0.1,0.7,0.2,1,0.4l1.2,0.7c0.3,0.2,0.6,0.4,0.8,0.7c0.4,0.1,0.7,0.2,1,0.4l1.2,0.7
					c0.3,0.2,0.6,0.4,0.8,0.7c0.4,0.1,0.7,0.2,1,0.4l1.2,0.7c0.3,0.2,0.6,0.4,0.8,0.7c0.4,0.1,0.7,0.2,1,0.4l1.2,0.7
					c1.4,0.8,1.9,2.7,1.1,4.1C428.1,126.9,427.1,127.5,426.1,127.5z"/>
			</g>
			<g>
				<path class="st0" d="M455,340.6c-1.7,0-3-1.3-3-3v-1.4c0-0.4,0.1-0.7,0.2-1.1c-0.1-0.3-0.2-0.7-0.2-1.1v-1.4
					c0-0.4,0.1-0.7,0.2-1.1c-0.1-0.3-0.2-0.7-0.2-1.1v-1.4c0-0.4,0.1-0.7,0.2-1.1c-0.1-0.3-0.2-0.7-0.2-1.1v-1.4
					c0-0.4,0.1-0.7,0.2-1.1c-0.1-0.3-0.2-0.7-0.2-1.1v-1.4c0-0.4,0.1-0.7,0.2-1.1c-0.1-0.3-0.2-0.7-0.2-1.1v-1.4
					c0-0.4,0.1-0.7,0.2-1.1c-0.1-0.3-0.2-0.7-0.2-1.1v-1.4c0-0.4,0.1-0.7,0.2-1.1c-0.1-0.3-0.2-0.7-0.2-1.1v-1.4
					c0-0.4,0.1-0.7,0.2-1.1c-0.1-0.3-0.2-0.7-0.2-1.1v-1.4c0-0.4,0.1-0.7,0.2-1.1c-0.1-0.3-0.2-0.7-0.2-1.1v-1.4
					c0-0.4,0.1-0.7,0.2-1.1c-0.1-0.3-0.2-0.7-0.2-1.1v-1.4c0-0.4,0.1-0.7,0.2-1.1c-0.1-0.3-0.2-0.7-0.2-1.1v-1.4
					c0-0.4,0.1-0.7,0.2-1.1c-0.1-0.3-0.2-0.7-0.2-1.1v-1.4c0-0.4,0.1-0.7,0.2-1.1c-0.1-0.3-0.2-0.7-0.2-1.1v-1.4
					c0-0.4,0.1-0.7,0.2-1.1c-0.1-0.3-0.2-0.7-0.2-1.1v-1.4c0-0.4,0.1-0.7,0.2-1.1c-0.1-0.3-0.2-0.7-0.2-1.1v-1.4
					c0-0.4,0.1-0.7,0.2-1.1c-0.1-0.3-0.2-0.7-0.2-1.1v-1.4c0-0.4,0.1-0.7,0.2-1.1c-0.1-0.3-0.2-0.7-0.2-1.1v-1.4
					c0-0.4,0.1-0.7,0.2-1.1c-0.1-0.3-0.2-0.7-0.2-1.1v-1.4c0-0.4,0.1-0.7,0.2-1.1c-0.1-0.3-0.2-0.7-0.2-1.1v-1.4
					c0-0.4,0.1-0.7,0.2-1.1c-0.1-0.3-0.2-0.7-0.2-1.1v-1.4c0-0.4,0.1-0.7,0.2-1.1c-0.1-0.3-0.2-0.7-0.2-1.1v-1.4
					c0-0.4,0.1-0.7,0.2-1.1c-0.1-0.3-0.2-0.7-0.2-1.1v-1.4c0-0.4,0.1-0.7,0.2-1.1c-0.1-0.3-0.2-0.7-0.2-1.1v-1.4
					c0-0.4,0.1-0.7,0.2-1.1c-0.1-0.3-0.2-0.7-0.2-1.1v-1.4c0-0.4,0.1-0.7,0.2-1.1c-0.1-0.3-0.2-0.7-0.2-1.1v-1.4
					c0-0.4,0.1-0.7,0.2-1.1c-0.1-0.3-0.2-0.7-0.2-1.1v-1.4c0-0.4,0.1-0.7,0.2-1.1c-0.1-0.3-0.2-0.7-0.2-1.1v-1.4
					c0-0.4,0.1-0.7,0.2-1.1c-0.1-0.3-0.2-0.7-0.2-1.1v-1.4c0-0.4,0.1-0.7,0.2-1.1c-0.1-0.3-0.2-0.7-0.2-1.1v-1.4
					c0-0.4,0.1-0.7,0.2-1.1c-0.1-0.3-0.2-0.7-0.2-1.1v-1.4c0-0.4,0.1-0.7,0.2-1.1c-0.1-0.3-0.2-0.7-0.2-1.1v-1.4
					c0-0.4,0.1-0.7,0.2-1.1c-0.1-0.3-0.2-0.7-0.2-1.1V221c0-0.4,0.1-0.7,0.2-1.1c-0.1-0.3-0.2-0.7-0.2-1.1v-1.4
					c0-0.4,0.1-0.7,0.2-1.1c-0.1-0.3-0.2-0.7-0.2-1.1v-1.4c0-0.4,0.1-0.7,0.2-1.1c-0.1-0.3-0.2-0.7-0.2-1.1v-1.4
					c0-0.4,0.1-0.7,0.2-1.1c-0.1-0.3-0.2-0.7-0.2-1.1v-1.4c0-0.4,0.1-0.7,0.2-1.1c-0.1-0.3-0.2-0.7-0.2-1.1V203
					c0-0.4,0.1-0.7,0.2-1.1c-0.1-0.3-0.2-0.7-0.2-1.1v-1.4c0-0.4,0.1-0.7,0.2-1.1c-0.1-0.3-0.2-0.7-0.2-1.1v-1.4
					c0-0.4,0.1-0.7,0.2-1.1c-0.1-0.3-0.2-0.7-0.2-1.1v-1.4c0-0.4,0.1-0.7,0.2-1.1c-0.1-0.3-0.2-0.7-0.2-1.1v-1.4
					c0-0.4,0.1-0.7,0.2-1.1c-0.1-0.3-0.2-0.7-0.2-1.1V185c0-0.4,0.1-0.7,0.2-1.1c-0.1-0.3-0.2-0.7-0.2-1.1v-1.4
					c0-0.4,0.1-0.7,0.2-1.1c-0.1-0.3-0.2-0.7-0.2-1.1v-1.4c0-0.4,0.1-0.7,0.2-1.1c-0.1-0.3-0.2-0.7-0.2-1.1v-1.4c0-1.7,1.3-3,3-3
					s3,1.3,3,3v1.4c0,0.4-0.1,0.7-0.2,1.1c0.1,0.3,0.2,0.7,0.2,1.1v1.4c0,0.4-0.1,0.7-0.2,1.1c0.1,0.3,0.2,0.7,0.2,1.1v1.4
					c0,0.4-0.1,0.7-0.2,1.1c0.1,0.3,0.2,0.7,0.2,1.1v1.4c0,0.4-0.1,0.7-0.2,1.1c0.1,0.3,0.2,0.7,0.2,1.1v1.4c0,0.4-0.1,0.7-0.2,1.1
					c0.1,0.3,0.2,0.7,0.2,1.1v1.4c0,0.4-0.1,0.7-0.2,1.1c0.1,0.3,0.2,0.7,0.2,1.1v1.4c0,0.4-0.1,0.7-0.2,1.1
					c0.1,0.3,0.2,0.7,0.2,1.1v1.4c0,0.4-0.1,0.7-0.2,1.1c0.1,0.3,0.2,0.7,0.2,1.1v1.4c0,0.4-0.1,0.7-0.2,1.1
					c0.1,0.3,0.2,0.7,0.2,1.1v1.4c0,0.4-0.1,0.7-0.2,1.1c0.1,0.3,0.2,0.7,0.2,1.1v1.4c0,0.4-0.1,0.7-0.2,1.1
					c0.1,0.3,0.2,0.7,0.2,1.1v1.4c0,0.4-0.1,0.7-0.2,1.1c0.1,0.3,0.2,0.7,0.2,1.1v1.4c0,0.4-0.1,0.7-0.2,1.1
					c0.1,0.3,0.2,0.7,0.2,1.1v1.4c0,0.4-0.1,0.7-0.2,1.1c0.1,0.3,0.2,0.7,0.2,1.1v1.4c0,0.4-0.1,0.7-0.2,1.1
					c0.1,0.3,0.2,0.7,0.2,1.1v1.4c0,0.4-0.1,0.7-0.2,1.1c0.1,0.3,0.2,0.7,0.2,1.1v1.4c0,0.4-0.1,0.7-0.2,1.1
					c0.1,0.3,0.2,0.7,0.2,1.1v1.4c0,0.4-0.1,0.7-0.2,1.1c0.1,0.3,0.2,0.7,0.2,1.1v1.4c0,0.4-0.1,0.7-0.2,1.1
					c0.1,0.3,0.2,0.7,0.2,1.1v1.4c0,0.4-0.1,0.7-0.2,1.1c0.1,0.3,0.2,0.7,0.2,1.1v1.4c0,0.4-0.1,0.7-0.2,1.1
					c0.1,0.3,0.2,0.7,0.2,1.1v1.4c0,0.4-0.1,0.7-0.2,1.1c0.1,0.3,0.2,0.7,0.2,1.1v1.4c0,0.4-0.1,0.7-0.2,1.1
					c0.1,0.3,0.2,0.7,0.2,1.1v1.4c0,0.4-0.1,0.7-0.2,1.1c0.1,0.3,0.2,0.7,0.2,1.1v1.4c0,0.4-0.1,0.7-0.2,1.1
					c0.1,0.3,0.2,0.7,0.2,1.1v1.4c0,0.4-0.1,0.7-0.2,1.1c0.1,0.3,0.2,0.7,0.2,1.1v1.4c0,0.4-0.1,0.7-0.2,1.1
					c0.1,0.3,0.2,0.7,0.2,1.1v1.4c0,0.4-0.1,0.7-0.2,1.1c0.1,0.3,0.2,0.7,0.2,1.1v1.4c0,0.4-0.1,0.7-0.2,1.1
					c0.1,0.3,0.2,0.7,0.2,1.1v1.4c0,0.4-0.1,0.7-0.2,1.1c0.1,0.3,0.2,0.7,0.2,1.1v1.4c0,0.4-0.1,0.7-0.2,1.1
					c0.1,0.3,0.2,0.7,0.2,1.1v1.4c0,0.4-0.1,0.7-0.2,1.1c0.1,0.3,0.2,0.7,0.2,1.1v1.4c0,0.4-0.1,0.7-0.2,1.1
					c0.1,0.3,0.2,0.7,0.2,1.1v1.4c0,0.4-0.1,0.7-0.2,1.1c0.1,0.3,0.2,0.7,0.2,1.1v1.4c0,0.4-0.1,0.7-0.2,1.1
					c0.1,0.3,0.2,0.7,0.2,1.1v1.4c0,0.4-0.1,0.7-0.2,1.1c0.1,0.3,0.2,0.7,0.2,1.1v1.4c0,0.4-0.1,0.7-0.2,1.1
					c0.1,0.3,0.2,0.7,0.2,1.1v1.4c0,0.4-0.1,0.7-0.2,1.1c0.1,0.3,0.2,0.7,0.2,1.1v1.4c0,0.4-0.1,0.7-0.2,1.1
					c0.1,0.3,0.2,0.7,0.2,1.1v1.4c0,0.4-0.1,0.7-0.2,1.1c0.1,0.3,0.2,0.7,0.2,1.1v1.4c0,0.4-0.1,0.7-0.2,1.1
					c0.1,0.3,0.2,0.7,0.2,1.1v1.4c0,0.4-0.1,0.7-0.2,1.1c0.1,0.3,0.2,0.7,0.2,1.1v1.4c0,0.4-0.1,0.7-0.2,1.1
					c0.1,0.3,0.2,0.7,0.2,1.1v1.4c0,0.4-0.1,0.7-0.2,1.1c0.1,0.3,0.2,0.7,0.2,1.1v1.4c0,0.4-0.1,0.7-0.2,1.1
					c0.1,0.3,0.2,0.7,0.2,1.1v1.4C458,339.2,456.7,340.6,455,340.6z"/>
			</g>
			<g>
				<path class="st0" d="M284.9,472.1c-1,0-2-0.5-2.6-1.5c-0.8-1.4-0.3-3.3,1.1-4.1l1.2-0.7c0.3-0.2,0.7-0.3,1-0.4
					c0.2-0.3,0.5-0.5,0.8-0.7l1.2-0.7c0.3-0.2,0.7-0.3,1-0.4c0.2-0.3,0.5-0.5,0.8-0.7l1.2-0.7c0.3-0.2,0.7-0.3,1-0.4
					c0.2-0.3,0.5-0.5,0.8-0.7l1.2-0.7c0.3-0.2,0.7-0.3,1-0.4c0.2-0.3,0.5-0.5,0.8-0.7l1.2-0.7c0.3-0.2,0.7-0.3,1-0.4
					c0.2-0.3,0.5-0.5,0.8-0.7l1.2-0.7c0.3-0.2,0.7-0.3,1-0.4c0.2-0.3,0.5-0.5,0.8-0.7l1.2-0.7c0.3-0.2,0.7-0.3,1-0.4
					c0.2-0.3,0.5-0.5,0.8-0.7l1.2-0.7c0.3-0.2,0.7-0.3,1-0.4c0.2-0.3,0.5-0.5,0.8-0.7l1.2-0.7c0.3-0.2,0.7-0.3,1-0.4
					c0.2-0.3,0.5-0.5,0.8-0.7l1.2-0.7c0.3-0.2,0.7-0.3,1-0.4c0.2-0.3,0.5-0.5,0.8-0.7l1.2-0.7c0.3-0.2,0.7-0.3,1-0.4
					c0.2-0.3,0.5-0.5,0.8-0.7l1.2-0.7c0.3-0.2,0.7-0.3,1-0.4c0.2-0.3,0.5-0.5,0.8-0.7l1.2-0.7c0.3-0.2,0.7-0.3,1-0.4
					c0.2-0.3,0.5-0.5,0.8-0.7l1.2-0.7c0.3-0.2,0.7-0.3,1-0.4c0.2-0.3,0.5-0.5,0.8-0.7l1.2-0.7c0.3-0.2,0.7-0.3,1-0.4
					c0.2-0.3,0.5-0.5,0.8-0.7l1.2-0.7c0.3-0.2,0.7-0.3,1-0.4c0.2-0.3,0.5-0.5,0.8-0.7l1.2-0.7c0.3-0.2,0.7-0.3,1-0.4
					c0.2-0.3,0.5-0.5,0.8-0.7l1.2-0.7c0.3-0.2,0.7-0.3,1-0.4c0.2-0.3,0.5-0.5,0.8-0.7l1.2-0.7c0.3-0.2,0.7-0.3,1-0.4
					c0.2-0.3,0.5-0.5,0.8-0.7l1.2-0.7c0.3-0.2,0.7-0.3,1-0.4c0.2-0.3,0.5-0.5,0.8-0.7l1.2-0.7c0.3-0.2,0.7-0.3,1-0.4
					c0.2-0.3,0.5-0.5,0.8-0.7l1.2-0.7c0.3-0.2,0.7-0.3,1-0.4c0.2-0.3,0.5-0.5,0.8-0.7l1.2-0.7c0.3-0.2,0.7-0.3,1-0.4
					c0.2-0.3,0.5-0.5,0.8-0.7l1.2-0.7c0.3-0.2,0.7-0.3,1-0.4c0.2-0.3,0.5-0.5,0.8-0.7l1.2-0.7c0.3-0.2,0.7-0.3,1-0.4
					c0.2-0.3,0.5-0.5,0.8-0.7l1.2-0.7c0.3-0.2,0.7-0.3,1-0.4c0.2-0.3,0.5-0.5,0.8-0.7l1.2-0.7c0.3-0.2,0.7-0.3,1-0.4
					c0.2-0.3,0.5-0.5,0.8-0.7l1.2-0.7c0.3-0.2,0.7-0.3,1-0.4c0.2-0.3,0.5-0.5,0.8-0.7l1.2-0.7c0.3-0.2,0.7-0.3,1-0.4
					c0.2-0.3,0.5-0.5,0.8-0.7l1.2-0.7c0.3-0.2,0.7-0.3,1-0.4c0.2-0.3,0.5-0.5,0.8-0.7l1.2-0.7c0.3-0.2,0.7-0.3,1-0.4
					c0.2-0.3,0.5-0.5,0.8-0.7l1.2-0.7c0.3-0.2,0.7-0.3,1-0.4c0.2-0.3,0.5-0.5,0.8-0.7l1.2-0.7c0.3-0.2,0.7-0.3,1-0.4
					c0.2-0.3,0.5-0.5,0.8-0.7l1.2-0.7c0.3-0.2,0.7-0.3,1-0.4c0.2-0.3,0.5-0.5,0.8-0.7l1.2-0.7c0.3-0.2,0.7-0.3,1-0.4
					c0.2-0.3,0.5-0.5,0.8-0.7l1.2-0.7c0.3-0.2,0.7-0.3,1-0.4c0.2-0.3,0.5-0.5,0.8-0.7l1.2-0.7c0.3-0.2,0.7-0.3,1-0.4
					c0.2-0.3,0.5-0.5,0.8-0.7l1.2-0.7c0.3-0.2,0.7-0.3,1-0.4c0.2-0.3,0.5-0.5,0.8-0.7l1.2-0.7c0.3-0.2,0.7-0.3,1-0.4
					c0.2-0.3,0.5-0.5,0.8-0.7l1.2-0.7c0.3-0.2,0.7-0.3,1-0.4c0.2-0.3,0.5-0.5,0.8-0.7l1.2-0.7c0.3-0.2,0.7-0.3,1-0.4
					c0.2-0.3,0.5-0.5,0.8-0.7l1.2-0.7c0.3-0.2,0.7-0.3,1-0.4c0.2-0.3,0.5-0.5,0.8-0.7l1.2-0.7c0.3-0.2,0.7-0.3,1-0.4
					c0.2-0.3,0.5-0.5,0.8-0.7l1.2-0.7c0.3-0.2,0.7-0.3,1-0.4c0.2-0.3,0.5-0.5,0.8-0.7l1.2-0.7c0.3-0.2,0.7-0.3,1-0.4
					c0.2-0.3,0.5-0.5,0.8-0.7l1.2-0.7c1.4-0.8,3.3-0.3,4.1,1.1c0.8,1.4,0.3,3.3-1.1,4.1l-1.2,0.7c-0.3,0.2-0.7,0.3-1,0.4
					c-0.2,0.3-0.5,0.5-0.8,0.7l-1.2,0.7c-0.3,0.2-0.7,0.3-1,0.4c-0.2,0.3-0.5,0.5-0.8,0.7l-1.2,0.7c-0.3,0.2-0.7,0.3-1,0.4
					c-0.2,0.3-0.5,0.5-0.8,0.7l-1.2,0.7c-0.3,0.2-0.7,0.3-1,0.4c-0.2,0.3-0.5,0.5-0.8,0.7l-1.2,0.7c-0.3,0.2-0.7,0.3-1,0.4
					c-0.2,0.3-0.5,0.5-0.8,0.7l-1.2,0.7c-0.3,0.2-0.7,0.3-1,0.4c-0.2,0.3-0.5,0.5-0.8,0.7l-1.2,0.7c-0.3,0.2-0.7,0.3-1,0.4
					c-0.2,0.3-0.5,0.5-0.8,0.7l-1.2,0.7c-0.3,0.2-0.7,0.3-1,0.4c-0.2,0.3-0.5,0.5-0.8,0.7l-1.2,0.7c-0.3,0.2-0.7,0.3-1,0.4
					c-0.2,0.3-0.5,0.5-0.8,0.7l-1.2,0.7c-0.3,0.2-0.7,0.3-1,0.4c-0.2,0.3-0.5,0.5-0.8,0.7l-1.2,0.7c-0.3,0.2-0.7,0.3-1,0.4
					c-0.2,0.3-0.5,0.5-0.8,0.7l-1.2,0.7c-0.3,0.2-0.7,0.3-1,0.4c-0.2,0.3-0.5,0.5-0.8,0.7l-1.2,0.7c-0.3,0.2-0.7,0.3-1,0.4
					c-0.2,0.3-0.5,0.5-0.8,0.7l-1.2,0.7c-0.3,0.2-0.7,0.3-1,0.4c-0.2,0.3-0.5,0.5-0.8,0.7l-1.2,0.7c-0.3,0.2-0.7,0.3-1,0.4
					c-0.2,0.3-0.5,0.5-0.8,0.7l-1.2,0.7c-0.3,0.2-0.7,0.3-1,0.4c-0.2,0.3-0.5,0.5-0.8,0.7l-1.2,0.7c-0.3,0.2-0.7,0.3-1,0.4
					c-0.2,0.3-0.5,0.5-0.8,0.7l-1.2,0.7c-0.3,0.2-0.7,0.3-1,0.4c-0.2,0.3-0.5,0.5-0.8,0.7l-1.2,0.7c-0.3,0.2-0.7,0.3-1,0.4
					c-0.2,0.3-0.5,0.5-0.8,0.7l-1.2,0.7c-0.3,0.2-0.7,0.3-1,0.4c-0.2,0.3-0.5,0.5-0.8,0.7l-1.2,0.7c-0.3,0.2-0.7,0.3-1,0.4
					c-0.2,0.3-0.5,0.5-0.8,0.7l-1.2,0.7c-0.3,0.2-0.7,0.3-1,0.4c-0.2,0.3-0.5,0.5-0.8,0.7l-1.2,0.7c-0.3,0.2-0.7,0.3-1,0.4
					c-0.2,0.3-0.5,0.5-0.8,0.7l-1.2,0.7c-0.3,0.2-0.7,0.3-1,0.4c-0.2,0.3-0.5,0.5-0.8,0.7l-1.2,0.7c-0.3,0.2-0.7,0.3-1,0.4
					c-0.2,0.3-0.5,0.5-0.8,0.7l-1.2,0.7c-0.3,0.2-0.7,0.3-1,0.4c-0.2,0.3-0.5,0.5-0.8,0.7l-1.2,0.7c-0.3,0.2-0.7,0.3-1,0.4
					c-0.2,0.3-0.5,0.5-0.8,0.7l-1.2,0.7c-0.3,0.2-0.7,0.3-1,0.4c-0.2,0.3-0.5,0.5-0.8,0.7l-1.2,0.7c-0.3,0.2-0.7,0.3-1,0.4
					c-0.2,0.3-0.5,0.5-0.8,0.7l-1.2,0.7c-0.3,0.2-0.7,0.3-1,0.4c-0.2,0.3-0.5,0.5-0.8,0.7l-1.2,0.7c-0.3,0.2-0.7,0.3-1,0.4
					c-0.2,0.3-0.5,0.5-0.8,0.7l-1.2,0.7c-0.3,0.2-0.7,0.3-1,0.4c-0.2,0.3-0.5,0.5-0.8,0.7l-1.2,0.7c-0.3,0.2-0.7,0.3-1,0.4
					c-0.2,0.3-0.5,0.5-0.8,0.7l-1.2,0.7c-0.3,0.2-0.7,0.3-1,0.4c-0.2,0.3-0.5,0.5-0.8,0.7l-1.2,0.7c-0.3,0.2-0.7,0.3-1,0.4
					c-0.2,0.3-0.5,0.5-0.8,0.7l-1.2,0.7c-0.3,0.2-0.7,0.3-1,0.4c-0.2,0.3-0.5,0.5-0.8,0.7l-1.2,0.7c-0.3,0.2-0.7,0.3-1,0.4
					c-0.2,0.3-0.5,0.5-0.8,0.7l-1.2,0.7c-0.3,0.2-0.7,0.3-1,0.4c-0.2,0.3-0.5,0.5-0.8,0.7l-1.2,0.7c-0.3,0.2-0.7,0.3-1,0.4
					c-0.2,0.3-0.5,0.5-0.8,0.7l-1.2,0.7c-0.3,0.2-0.7,0.3-1,0.4c-0.2,0.3-0.5,0.5-0.8,0.7l-1.2,0.7c-0.3,0.2-0.7,0.3-1,0.4
					c-0.2,0.3-0.5,0.5-0.8,0.7l-1.2,0.7c-0.3,0.2-0.7,0.3-1,0.4c-0.2,0.3-0.5,0.5-0.8,0.7l-1.2,0.7c-0.3,0.2-0.7,0.3-1,0.4
					c-0.2,0.3-0.5,0.5-0.8,0.7l-1.2,0.7c-0.3,0.2-0.7,0.3-1,0.4c-0.2,0.3-0.5,0.5-0.8,0.7l-1.2,0.7c-0.3,0.2-0.7,0.3-1,0.4
					c-0.2,0.3-0.5,0.5-0.8,0.7l-1.2,0.7C285.9,472,285.4,472.1,284.9,472.1z"/>
			</g>
			<g>
				<path class="st0" d="M227.4,472.4c-0.5,0-1-0.1-1.5-0.4l-1.2-0.7c-0.3-0.2-0.6-0.4-0.8-0.7c-0.4-0.1-0.7-0.2-1-0.4l-1.2-0.7
					c-0.3-0.2-0.6-0.4-0.8-0.7c-0.4-0.1-0.7-0.2-1-0.4l-1.2-0.7c-0.3-0.2-0.6-0.4-0.8-0.7c-0.4-0.1-0.7-0.2-1-0.4l-1.2-0.7
					c-0.3-0.2-0.6-0.4-0.8-0.7c-0.4-0.1-0.7-0.2-1-0.4l-1.2-0.7c-0.3-0.2-0.6-0.4-0.8-0.7c-0.4-0.1-0.7-0.2-1-0.4l-1.2-0.7
					c-0.3-0.2-0.6-0.4-0.8-0.7c-0.4-0.1-0.7-0.2-1-0.4l-1.2-0.7c-0.3-0.2-0.6-0.4-0.8-0.7c-0.4-0.1-0.7-0.2-1-0.4l-1.2-0.7
					c-0.3-0.2-0.6-0.4-0.8-0.7c-0.4-0.1-0.7-0.2-1-0.4l-1.2-0.7c-0.3-0.2-0.6-0.4-0.8-0.7c-0.4-0.1-0.7-0.2-1-0.4l-1.2-0.7
					c-0.3-0.2-0.6-0.4-0.8-0.7c-0.4-0.1-0.7-0.2-1-0.4l-1.2-0.7c-0.3-0.2-0.6-0.4-0.8-0.7c-0.4-0.1-0.7-0.2-1-0.4l-1.2-0.7
					c-0.3-0.2-0.6-0.4-0.8-0.7c-0.4-0.1-0.7-0.2-1-0.4l-1.2-0.7c-0.3-0.2-0.6-0.4-0.8-0.7c-0.4-0.1-0.7-0.2-1-0.4l-1.2-0.7
					c-0.3-0.2-0.6-0.4-0.8-0.7c-0.4-0.1-0.7-0.2-1-0.4l-1.2-0.7c-0.3-0.2-0.6-0.4-0.8-0.7c-0.4-0.1-0.7-0.2-1-0.4l-1.2-0.7
					c-0.3-0.2-0.6-0.4-0.8-0.7c-0.4-0.1-0.7-0.2-1-0.4l-1.2-0.7c-0.3-0.2-0.6-0.4-0.8-0.7c-0.4-0.1-0.7-0.2-1-0.4l-1.2-0.7
					c-0.3-0.2-0.6-0.4-0.8-0.7c-0.4-0.1-0.7-0.2-1-0.4l-1.2-0.7c-0.3-0.2-0.6-0.4-0.8-0.7c-0.4-0.1-0.7-0.2-1-0.4l-1.2-0.7
					c-0.3-0.2-0.6-0.4-0.8-0.7c-0.4-0.1-0.7-0.2-1-0.4l-1.2-0.7c-0.3-0.2-0.6-0.4-0.8-0.7c-0.4-0.1-0.7-0.2-1-0.4l-1.2-0.7
					c-0.3-0.2-0.6-0.4-0.8-0.7c-0.4-0.1-0.7-0.2-1-0.4l-1.2-0.7c-0.3-0.2-0.6-0.4-0.8-0.7c-0.4-0.1-0.7-0.2-1-0.4l-1.2-0.7
					c-0.3-0.2-0.6-0.4-0.8-0.7c-0.4-0.1-0.7-0.2-1-0.4l-1.2-0.7c-0.3-0.2-0.6-0.4-0.8-0.7c-0.4-0.1-0.7-0.2-1-0.4l-1.2-0.7
					c-0.3-0.2-0.6-0.4-0.8-0.7c-0.4-0.1-0.7-0.2-1-0.4l-1.2-0.7c-0.3-0.2-0.6-0.4-0.8-0.7c-0.4-0.1-0.7-0.2-1-0.4l-1.2-0.7
					c-0.3-0.2-0.6-0.4-0.8-0.7c-0.4-0.1-0.7-0.2-1-0.4l-1.2-0.7c-0.3-0.2-0.6-0.4-0.8-0.7c-0.4-0.1-0.7-0.2-1-0.4l-1.2-0.7
					c-0.3-0.2-0.6-0.4-0.8-0.7c-0.4-0.1-0.7-0.2-1-0.4l-1.2-0.7c-0.3-0.2-0.6-0.4-0.8-0.7c-0.4-0.1-0.7-0.2-1-0.4l-1.2-0.7
					c-0.3-0.2-0.6-0.4-0.8-0.7c-0.4-0.1-0.7-0.2-1-0.4l-1.2-0.7c-0.3-0.2-0.6-0.4-0.8-0.7c-0.4-0.1-0.7-0.2-1-0.4l-1.2-0.7
					c-0.3-0.2-0.6-0.4-0.8-0.7c-0.4-0.1-0.7-0.2-1-0.4l-1.2-0.7c-0.3-0.2-0.6-0.4-0.8-0.7c-0.4-0.1-0.7-0.2-1-0.4l-1.2-0.7
					c-0.3-0.2-0.6-0.4-0.8-0.7c-0.4-0.1-0.7-0.2-1-0.4l-1.2-0.7c-0.3-0.2-0.6-0.4-0.8-0.7c-0.4-0.1-0.7-0.2-1-0.4l-1.2-0.7
					c-0.3-0.2-0.6-0.4-0.8-0.7c-0.4-0.1-0.7-0.2-1-0.4l-1.2-0.7c-0.3-0.2-0.6-0.4-0.8-0.7c-0.4-0.1-0.7-0.2-1-0.4l-1.2-0.7
					c-0.3-0.2-0.6-0.4-0.8-0.7c-0.4-0.1-0.7-0.2-1-0.4l-1.2-0.7c-0.3-0.2-0.6-0.4-0.8-0.7c-0.4-0.1-0.7-0.2-1-0.4l-1.2-0.7
					c-0.3-0.2-0.6-0.4-0.8-0.7c-0.4-0.1-0.7-0.2-1-0.4l-1.2-0.7c-0.3-0.2-0.6-0.4-0.8-0.7c-0.4-0.1-0.7-0.2-1-0.4l-1.2-0.7
					c-0.3-0.2-0.6-0.4-0.8-0.7c-0.4-0.1-0.7-0.2-1-0.4l-1.2-0.7c-0.3-0.2-0.6-0.4-0.8-0.7c-0.4-0.1-0.7-0.2-1-0.4l-1.2-0.7
					c-1.4-0.8-1.9-2.7-1.1-4.1c0.8-1.4,2.7-1.9,4.1-1.1l1.2,0.7c0.3,0.2,0.6,0.4,0.8,0.7c0.4,0.1,0.7,0.2,1,0.4l1.2,0.7
					c0.3,0.2,0.6,0.4,0.8,0.7c0.4,0.1,0.7,0.2,1,0.4l1.2,0.7c0.3,0.2,0.6,0.4,0.8,0.7c0.4,0.1,0.7,0.2,1,0.4l1.2,0.7
					c0.3,0.2,0.6,0.4,0.8,0.7c0.4,0.1,0.7,0.2,1,0.4l1.2,0.7c0.3,0.2,0.6,0.4,0.8,0.7c0.4,0.1,0.7,0.2,1,0.4l1.2,0.7
					c0.3,0.2,0.6,0.4,0.8,0.7c0.4,0.1,0.7,0.2,1,0.4l1.2,0.7c0.3,0.2,0.6,0.4,0.8,0.7c0.4,0.1,0.7,0.2,1,0.4l1.2,0.7
					c0.3,0.2,0.6,0.4,0.8,0.7c0.4,0.1,0.7,0.2,1,0.4l1.2,0.7c0.3,0.2,0.6,0.4,0.8,0.7c0.4,0.1,0.7,0.2,1,0.4l1.2,0.7
					c0.3,0.2,0.6,0.4,0.8,0.7c0.4,0.1,0.7,0.2,1,0.4l1.2,0.7c0.3,0.2,0.6,0.4,0.8,0.7c0.4,0.1,0.7,0.2,1,0.4l1.2,0.7
					c0.3,0.2,0.6,0.4,0.8,0.7c0.4,0.1,0.7,0.2,1,0.4l1.2,0.7c0.3,0.2,0.6,0.4,0.8,0.7c0.4,0.1,0.7,0.2,1,0.4l1.2,0.7
					c0.3,0.2,0.6,0.4,0.8,0.7c0.4,0.1,0.7,0.2,1,0.4l1.2,0.7c0.3,0.2,0.6,0.4,0.8,0.7c0.4,0.1,0.7,0.2,1,0.4l1.2,0.7
					c0.3,0.2,0.6,0.4,0.8,0.7c0.4,0.1,0.7,0.2,1,0.4l1.2,0.7c0.3,0.2,0.6,0.4,0.8,0.7c0.4,0.1,0.7,0.2,1,0.4l1.2,0.7
					c0.3,0.2,0.6,0.4,0.8,0.7c0.4,0.1,0.7,0.2,1,0.4l1.2,0.7c0.3,0.2,0.6,0.4,0.8,0.7c0.4,0.1,0.7,0.2,1,0.4l1.2,0.7
					c0.3,0.2,0.6,0.4,0.8,0.7c0.4,0.1,0.7,0.2,1,0.4l1.2,0.7c0.3,0.2,0.6,0.4,0.8,0.7c0.4,0.1,0.7,0.2,1,0.4l1.2,0.7
					c0.3,0.2,0.6,0.4,0.8,0.7c0.4,0.1,0.7,0.2,1,0.4l1.2,0.7c0.3,0.2,0.6,0.4,0.8,0.7c0.4,0.1,0.7,0.2,1,0.4l1.2,0.7
					c0.3,0.2,0.6,0.4,0.8,0.7c0.4,0.1,0.7,0.2,1,0.4l1.2,0.7c0.3,0.2,0.6,0.4,0.8,0.7c0.4,0.1,0.7,0.2,1,0.4l1.2,0.7
					c0.3,0.2,0.6,0.4,0.8,0.7c0.4,0.1,0.7,0.2,1,0.4l1.2,0.7c0.3,0.2,0.6,0.4,0.8,0.7c0.4,0.1,0.7,0.2,1,0.4l1.2,0.7
					c0.3,0.2,0.6,0.4,0.8,0.7c0.4,0.1,0.7,0.2,1,0.4l1.2,0.7c0.3,0.2,0.6,0.4,0.8,0.7c0.4,0.1,0.7,0.2,1,0.4l1.2,0.7
					c0.3,0.2,0.6,0.4,0.8,0.7c0.4,0.1,0.7,0.2,1,0.4l1.2,0.7c0.3,0.2,0.6,0.4,0.8,0.7c0.4,0.1,0.7,0.2,1,0.4l1.2,0.7
					c0.3,0.2,0.6,0.4,0.8,0.7c0.4,0.1,0.7,0.2,1,0.4l1.2,0.7c0.3,0.2,0.6,0.4,0.8,0.7c0.4,0.1,0.7,0.2,1,0.4l1.2,0.7
					c0.3,0.2,0.6,0.4,0.8,0.7c0.4,0.1,0.7,0.2,1,0.4l1.2,0.7c0.3,0.2,0.6,0.4,0.8,0.7c0.4,0.1,0.7,0.2,1,0.4l1.2,0.7
					c0.3,0.2,0.6,0.4,0.8,0.7c0.4,0.1,0.7,0.2,1,0.4l1.2,0.7c0.3,0.2,0.6,0.4,0.8,0.7c0.4,0.1,0.7,0.2,1,0.4l1.2,0.7
					c0.3,0.2,0.6,0.4,0.8,0.7c0.4,0.1,0.7,0.2,1,0.4l1.2,0.7c0.3,0.2,0.6,0.4,0.8,0.7c0.4,0.1,0.7,0.2,1,0.4l1.2,0.7
					c0.3,0.2,0.6,0.4,0.8,0.7c0.4,0.1,0.7,0.2,1,0.4l1.2,0.7c0.3,0.2,0.6,0.4,0.8,0.7c0.4,0.1,0.7,0.2,1,0.4l1.2,0.7
					c0.3,0.2,0.6,0.4,0.8,0.7c0.4,0.1,0.7,0.2,1,0.4l1.2,0.7c0.3,0.2,0.6,0.4,0.8,0.7c0.4,0.1,0.7,0.2,1,0.4l1.2,0.7
					c0.3,0.2,0.6,0.4,0.8,0.7c0.4,0.1,0.7,0.2,1,0.4l1.2,0.7c0.3,0.2,0.6,0.4,0.8,0.7c0.4,0.1,0.7,0.2,1,0.4l1.2,0.7
					c1.4,0.8,1.9,2.7,1.1,4.1C229.5,471.8,228.5,472.4,227.4,472.4z"/>
			</g>
			<g>
				<path class="st0" d="M57,341c-1.7,0-3-1.3-3-3v-1.4c0-0.4,0.1-0.7,0.2-1.1c-0.1-0.3-0.2-0.7-0.2-1.1v-1.4c0-0.4,0.1-0.7,0.2-1.1
					c-0.1-0.3-0.2-0.7-0.2-1.1v-1.4c0-0.4,0.1-0.7,0.2-1.1c-0.1-0.3-0.2-0.7-0.2-1.1v-1.4c0-0.4,0.1-0.7,0.2-1.1
					c-0.1-0.3-0.2-0.7-0.2-1.1v-1.4c0-0.4,0.1-0.7,0.2-1.1c-0.1-0.3-0.2-0.7-0.2-1.1v-1.4c0-0.4,0.1-0.7,0.2-1.1
					c-0.1-0.3-0.2-0.7-0.2-1.1v-1.4c0-0.4,0.1-0.7,0.2-1.1c-0.1-0.3-0.2-0.7-0.2-1.1v-1.4c0-0.4,0.1-0.7,0.2-1.1
					c-0.1-0.3-0.2-0.7-0.2-1.1v-1.4c0-0.4,0.1-0.7,0.2-1.1c-0.1-0.3-0.2-0.7-0.2-1.1v-1.4c0-0.4,0.1-0.7,0.2-1.1
					c-0.1-0.3-0.2-0.7-0.2-1.1v-1.4c0-0.4,0.1-0.7,0.2-1.1c-0.1-0.3-0.2-0.7-0.2-1.1v-1.4c0-0.4,0.1-0.7,0.2-1.1
					c-0.1-0.3-0.2-0.7-0.2-1.1v-1.4c0-0.4,0.1-0.7,0.2-1.1c-0.1-0.3-0.2-0.7-0.2-1.1v-1.4c0-0.4,0.1-0.7,0.2-1.1
					c-0.1-0.3-0.2-0.7-0.2-1.1v-1.4c0-0.4,0.1-0.7,0.2-1.1c-0.1-0.3-0.2-0.7-0.2-1.1v-1.4c0-0.4,0.1-0.7,0.2-1.1
					c-0.1-0.3-0.2-0.7-0.2-1.1v-1.4c0-0.4,0.1-0.7,0.2-1.1c-0.1-0.3-0.2-0.7-0.2-1.1v-1.4c0-0.4,0.1-0.7,0.2-1.1
					c-0.1-0.3-0.2-0.7-0.2-1.1v-1.4c0-0.4,0.1-0.7,0.2-1.1c-0.1-0.3-0.2-0.7-0.2-1.1v-1.4c0-0.4,0.1-0.7,0.2-1.1
					c-0.1-0.3-0.2-0.7-0.2-1.1v-1.4c0-0.4,0.1-0.7,0.2-1.1c-0.1-0.3-0.2-0.7-0.2-1.1V261c0-0.4,0.1-0.7,0.2-1.1
					c-0.1-0.3-0.2-0.7-0.2-1.1v-1.4c0-0.4,0.1-0.7,0.2-1.1c-0.1-0.3-0.2-0.7-0.2-1.1v-1.4c0-0.4,0.1-0.7,0.2-1.1
					c-0.1-0.3-0.2-0.7-0.2-1.1v-1.4c0-0.4,0.1-0.7,0.2-1.1c-0.1-0.3-0.2-0.7-0.2-1.1v-1.4c0-0.4,0.1-0.7,0.2-1.1
					c-0.1-0.3-0.2-0.7-0.2-1.1V243c0-0.4,0.1-0.7,0.2-1.1c-0.1-0.3-0.2-0.7-0.2-1.1v-1.4c0-0.4,0.1-0.7,0.2-1.1
					c-0.1-0.3-0.2-0.7-0.2-1.1v-1.4c0-0.4,0.1-0.7,0.2-1.1c-0.1-0.3-0.2-0.7-0.2-1.1v-1.4c0-0.4,0.1-0.7,0.2-1.1
					c-0.1-0.3-0.2-0.7-0.2-1.1v-1.4c0-0.4,0.1-0.7,0.2-1.1c-0.1-0.3-0.2-0.7-0.2-1.1V225c0-0.4,0.1-0.7,0.2-1.1
					c-0.1-0.3-0.2-0.7-0.2-1.1v-1.4c0-0.4,0.1-0.7,0.2-1.1c-0.1-0.3-0.2-0.7-0.2-1.1v-1.4c0-0.4,0.1-0.7,0.2-1.1
					c-0.1-0.3-0.2-0.7-0.2-1.1v-1.4c0-0.4,0.1-0.7,0.2-1.1c-0.1-0.3-0.2-0.7-0.2-1.1v-1.4c0-0.4,0.1-0.7,0.2-1.1
					c-0.1-0.3-0.2-0.7-0.2-1.1V207c0-0.4,0.1-0.7,0.2-1.1c-0.1-0.3-0.2-0.7-0.2-1.1v-1.4c0-0.4,0.1-0.7,0.2-1.1
					c-0.1-0.3-0.2-0.7-0.2-1.1v-1.4c0-0.4,0.1-0.7,0.2-1.1c-0.1-0.3-0.2-0.7-0.2-1.1v-1.4c0-0.4,0.1-0.7,0.2-1.1
					c-0.1-0.3-0.2-0.7-0.2-1.1v-1.4c0-0.4,0.1-0.7,0.2-1.1c-0.1-0.3-0.2-0.7-0.2-1.1V189c0-0.4,0.1-0.7,0.2-1.1
					c-0.1-0.3-0.2-0.7-0.2-1.1v-1.4c0-0.4,0.1-0.7,0.2-1.1c-0.1-0.3-0.2-0.7-0.2-1.1v-1.4c0-0.4,0.1-0.7,0.2-1.1
					c-0.1-0.3-0.2-0.7-0.2-1.1v-1.4c0-0.4,0.1-0.7,0.2-1.1c-0.1-0.3-0.2-0.7-0.2-1.1v-1.4c0-1.7,1.3-3,3-3s3,1.3,3,3v1.4
					c0,0.4-0.1,0.7-0.2,1.1c0.1,0.3,0.2,0.7,0.2,1.1v1.4c0,0.4-0.1,0.7-0.2,1.1c0.1,0.3,0.2,0.7,0.2,1.1v1.4c0,0.4-0.1,0.7-0.2,1.1
					c0.1,0.3,0.2,0.7,0.2,1.1v1.4c0,0.4-0.1,0.7-0.2,1.1c0.1,0.3,0.2,0.7,0.2,1.1v1.4c0,0.4-0.1,0.7-0.2,1.1
					c0.1,0.3,0.2,0.7,0.2,1.1v1.4c0,0.4-0.1,0.7-0.2,1.1c0.1,0.3,0.2,0.7,0.2,1.1v1.4c0,0.4-0.1,0.7-0.2,1.1
					c0.1,0.3,0.2,0.7,0.2,1.1v1.4c0,0.4-0.1,0.7-0.2,1.1c0.1,0.3,0.2,0.7,0.2,1.1v1.4c0,0.4-0.1,0.7-0.2,1.1
					c0.1,0.3,0.2,0.7,0.2,1.1v1.4c0,0.4-0.1,0.7-0.2,1.1c0.1,0.3,0.2,0.7,0.2,1.1v1.4c0,0.4-0.1,0.7-0.2,1.1
					c0.1,0.3,0.2,0.7,0.2,1.1v1.4c0,0.4-0.1,0.7-0.2,1.1c0.1,0.3,0.2,0.7,0.2,1.1v1.4c0,0.4-0.1,0.7-0.2,1.1
					c0.1,0.3,0.2,0.7,0.2,1.1v1.4c0,0.4-0.1,0.7-0.2,1.1c0.1,0.3,0.2,0.7,0.2,1.1v1.4c0,0.4-0.1,0.7-0.2,1.1
					c0.1,0.3,0.2,0.7,0.2,1.1v1.4c0,0.4-0.1,0.7-0.2,1.1c0.1,0.3,0.2,0.7,0.2,1.1v1.4c0,0.4-0.1,0.7-0.2,1.1
					c0.1,0.3,0.2,0.7,0.2,1.1v1.4c0,0.4-0.1,0.7-0.2,1.1c0.1,0.3,0.2,0.7,0.2,1.1v1.4c0,0.4-0.1,0.7-0.2,1.1
					c0.1,0.3,0.2,0.7,0.2,1.1v1.4c0,0.4-0.1,0.7-0.2,1.1c0.1,0.3,0.2,0.7,0.2,1.1v1.4c0,0.4-0.1,0.7-0.2,1.1
					c0.1,0.3,0.2,0.7,0.2,1.1v1.4c0,0.4-0.1,0.7-0.2,1.1c0.1,0.3,0.2,0.7,0.2,1.1v1.4c0,0.4-0.1,0.7-0.2,1.1
					c0.1,0.3,0.2,0.7,0.2,1.1v1.4c0,0.4-0.1,0.7-0.2,1.1c0.1,0.3,0.2,0.7,0.2,1.1v1.4c0,0.4-0.1,0.7-0.2,1.1
					c0.1,0.3,0.2,0.7,0.2,1.1v1.4c0,0.4-0.1,0.7-0.2,1.1c0.1,0.3,0.2,0.7,0.2,1.1v1.4c0,0.4-0.1,0.7-0.2,1.1
					c0.1,0.3,0.2,0.7,0.2,1.1v1.4c0,0.4-0.1,0.7-0.2,1.1c0.1,0.3,0.2,0.7,0.2,1.1v1.4c0,0.4-0.1,0.7-0.2,1.1
					c0.1,0.3,0.2,0.7,0.2,1.1v1.4c0,0.4-0.1,0.7-0.2,1.1c0.1,0.3,0.2,0.7,0.2,1.1v1.4c0,0.4-0.1,0.7-0.2,1.1
					c0.1,0.3,0.2,0.7,0.2,1.1v1.4c0,0.4-0.1,0.7-0.2,1.1c0.1,0.3,0.2,0.7,0.2,1.1v1.4c0,0.4-0.1,0.7-0.2,1.1
					c0.1,0.3,0.2,0.7,0.2,1.1v1.4c0,0.4-0.1,0.7-0.2,1.1c0.1,0.3,0.2,0.7,0.2,1.1v1.4c0,0.4-0.1,0.7-0.2,1.1
					c0.1,0.3,0.2,0.7,0.2,1.1v1.4c0,0.4-0.1,0.7-0.2,1.1c0.1,0.3,0.2,0.7,0.2,1.1v1.4c0,0.4-0.1,0.7-0.2,1.1
					c0.1,0.3,0.2,0.7,0.2,1.1v1.4c0,0.4-0.1,0.7-0.2,1.1c0.1,0.3,0.2,0.7,0.2,1.1v1.4c0,0.4-0.1,0.7-0.2,1.1
					c0.1,0.3,0.2,0.7,0.2,1.1v1.4c0,0.4-0.1,0.7-0.2,1.1c0.1,0.3,0.2,0.7,0.2,1.1v1.4c0,0.4-0.1,0.7-0.2,1.1
					c0.1,0.3,0.2,0.7,0.2,1.1v1.4c0,0.4-0.1,0.7-0.2,1.1c0.1,0.3,0.2,0.7,0.2,1.1v1.4c0,0.4-0.1,0.7-0.2,1.1
					c0.1,0.3,0.2,0.7,0.2,1.1v1.4c0,0.4-0.1,0.7-0.2,1.1c0.1,0.3,0.2,0.7,0.2,1.1v1.4c0,0.4-0.1,0.7-0.2,1.1
					c0.1,0.3,0.2,0.7,0.2,1.1v1.4C60,339.6,58.7,341,57,341z"/>
			</g>
			<g>
				<path class="st0" d="M425,259.1H87.7c-1.7,0-3-1.3-3-3s1.3-3,3-3H425c1.7,0,3,1.3,3,3C428,257.7,426.6,259.1,425,259.1z"/>
			</g>
		</g>
	</g>
</g>
</svg>
