<?xml version="1.0" encoding="utf-8"?>
<!-- Generator: Adobe Illustrator 24.3.0, SVG Export Plug-In . SVG Version: 6.00 Build 0)  -->
<svg version="1.1" id="Layer_1" xmlns="http://www.w3.org/2000/svg" xmlns:xlink="http://www.w3.org/1999/xlink" x="0px" y="0px"
	 viewBox="0 0 512 640" style="enable-background:new 0 0 512 640;" xml:space="preserve">
<style type="text/css">
	.st0{fill:#DC0E18;}
</style>
<g>
	<g>
		<g>
			<g>
				<path class="st0" d="M216,319H106c-1.7,0-3-1.3-3-3V116c0-1.7,1.3-3,3-3h110c1.7,0,3,1.3,3,3v200C219,317.7,217.7,319,216,319z
					 M109,313h104V119H109V313z"/>
			</g>
			<g>
				<path class="st0" d="M416,379c-0.3,0-0.7-0.1-1-0.2l-200-70c-1.2-0.4-2-1.6-2-2.8V126c0-1.3,0.8-2.4,2-2.8l200-70
					c0.9-0.3,1.9-0.2,2.7,0.4c0.8,0.6,1.3,1.5,1.3,2.4v320c0,1-0.5,1.9-1.3,2.4C417.2,378.8,416.6,379,416,379z M219,303.9l194,67.9
					V60.2l-194,67.9V303.9z"/>
			</g>
			<g>
				<path class="st0" d="M446,409c-18.2,0-33-14.8-33-33V56c0-18.2,14.8-33,33-33s33,14.8,33,33v320C479,394.2,464.2,409,446,409z
					 M446,29c-14.9,0-27,12.1-27,27v320c0,14.9,12.1,27,27,27s27-12.1,27-27V56C473,41.1,460.9,29,446,29z"/>
			</g>
			<g>
				<path class="st0" d="M106,289H71c-21,0-38-17-38-38v-80c0-21,17-38,38-38h35c1.7,0,3,1.3,3,3v150C109,287.7,107.7,289,106,289z
					 M71,139c-17.6,0-32,14.4-32,32v80c0,17.6,14.4,32,32,32h32V139H71z"/>
			</g>
			<g>
				<path class="st0" d="M226,399h-15.9c-1.7,0-3-1.3-3-3s1.3-3,3-3H226c9.4,0,17-7.6,17-17s-7.6-17-17-17h-22.9c-1.7,0-3-1.3-3-3
					s1.3-3,3-3H226c12.7,0,23,10.3,23,23S238.7,399,226,399z"/>
			</g>
			<g>
				<path class="st0" d="M197.4,489h-21.2c-13.1,0-24.3-9.4-26.6-22.3L123,316.5c-0.2-0.9,0.1-1.8,0.7-2.4c0.6-0.7,1.4-1.1,2.3-1.1
					h70c1.5,0,2.7,1,3,2.5l25,141.8c1.4,7.9-0.8,15.9-5.9,22.1C212.9,485.5,205.4,489,197.4,489z M129.6,319l25.9,146.6
					c1.8,10.1,10.5,17.4,20.7,17.4h21.2c6.2,0,12.1-2.7,16.1-7.5s5.7-11,4.6-17.2L193.5,319H129.6z"/>
			</g>
			<g>
				<path class="st0" d="M176,169h-30c-1.7,0-3-1.3-3-3s1.3-3,3-3h30c1.7,0,3,1.3,3,3S177.7,169,176,169z"/>
			</g>
			<g>
				<path class="st0" d="M176,219h-30c-1.7,0-3-1.3-3-3s1.3-3,3-3h30c1.7,0,3,1.3,3,3S177.7,219,176,219z"/>
			</g>
			<g>
				<path class="st0" d="M176,269h-30c-1.7,0-3-1.3-3-3s1.3-3,3-3h30c1.7,0,3,1.3,3,3S177.7,269,176,269z"/>
			</g>
		</g>
	</g>
</g>
</svg>
